HIERARCHY
ROOT Hips
{
  OFFSET 1.44925e-005 102.336 -0.101585
  CHANNELS 6 Xposition Yposition Zposition Zrotation Xrotation Yrotation
  JOINT LeftUpLeg
  {
    OFFSET 8.9458 -8.66707 0.101652
    CHANNELS 3 Zrotation Xrotation Yrotation
    JOINT LeftLeg
    {
      OFFSET 0 -44.4227 1.3727
      CHANNELS 3 Zrotation Xrotation Yrotation
      JOINT LeftFoot
      {
        OFFSET -0.253549 -42.0924 -1.46059
        CHANNELS 3 Zrotation Xrotation Yrotation
        JOINT LeftToes
        {
          OFFSET -0.04 -4.41509 8.4991
          CHANNELS 3 Zrotation Xrotation Yrotation
          End Site
          {
            OFFSET 0.08 -0.047448 9.77979
          }
        }
      }
    }
  }
  JOINT Spine
  {
    OFFSET 0 11.8905 0
    CHANNELS 3 Zrotation Xrotation Yrotation
    JOINT Spine1
    {
      OFFSET 0 25.6574 0.127663
      CHANNELS 3 Zrotation Xrotation Yrotation
      JOINT RightShoulder
      {
        OFFSET -8.99 -0.362252 -0.22
        CHANNELS 3 Zrotation Xrotation Yrotation
        JOINT RightArm
        {
          OFFSET -10.2827 -0.00338 0.322123
          CHANNELS 3 Zrotation Xrotation Yrotation
          JOINT RightForeArm
          {
            OFFSET -26.364 0.099144 -1.42434
            CHANNELS 3 Zrotation Xrotation Yrotation
            JOINT RightHand
            {
              OFFSET -22.0324 0.085362 1.02216
              CHANNELS 3 Zrotation Xrotation Yrotation
              End Site
              {
                OFFSET -13.3284 -0.6 1.50291
              }
            }
          }
        }
      }
      JOINT LeftShoulder1
      {
        OFFSET 8.99 -0.362252 -0.22
        CHANNELS 3 Zrotation Xrotation Yrotation
        JOINT LeftArm
        {
          OFFSET 10.2827 -0.00337999 0.322123
          CHANNELS 3 Zrotation Xrotation Yrotation
          JOINT LeftForeArm
          {
            OFFSET 26.2597 0.099144 -1.42434
            CHANNELS 3 Zrotation Xrotation Yrotation
            JOINT LeftHand
            {
              OFFSET 22.0902 0.085362 1.02216
              CHANNELS 3 Zrotation Xrotation Yrotation
              End Site
              {
                OFFSET 13.419 -0.6 1.50291
              }
            }
          }
        }
      }
      JOINT Head
      {
        OFFSET 0 8.73416 0.011341
        CHANNELS 3 Zrotation Xrotation Yrotation
        End Site
        {
          OFFSET -0.29 12.7742 2.51395
        }
      }
    }
  }
  JOINT RightUpLeg
  {
    OFFSET -8.9458 -8.66707 0.101652
    CHANNELS 3 Zrotation Xrotation Yrotation
    JOINT RightLeg
    {
      OFFSET 0 -44.4227 1.3727
      CHANNELS 3 Zrotation Xrotation Yrotation
      JOINT RightFoot
      {
        OFFSET 0.253549 -42.0924 -1.46059
        CHANNELS 3 Zrotation Xrotation Yrotation
        JOINT RightToes
        {
          OFFSET 0.04 -4.41509 8.4991
          CHANNELS 3 Zrotation Xrotation Yrotation
          End Site
          {
            OFFSET -0.08 -0.137448 9.77979
          }
        }
      }
    }
  }
}
MOTION
Frames:	19
Frame Time:	0.0333333
1.40572 101.123 -7.45218 -5.17754 -1.48596 -89.0062 -1.25913 -18.214 -1.41339 1.28179 36.391 21.8688 -8.77537 -10.4379 -0.168544 -1.32628e-009 8.7523e-006 -1.46892e-008 6.57163 14.1093 0.184882 -5.04882 -2.05562 1.86598 34.7857 1.69921 0.12264 37.8415 2.41155 25.1443 4.09316 23.7642 18.5633 -7.78042 9.55559 0.23794 -44.362 3.5249 -3.40495 -24.774 -22.0066 10.3066 -10.4761 45.9162 -4.44535 5.82328 9.61819 -0.917488 1.3996 -15.3133 -9.05115 -0.136683 2.17202 -7.43833 3.56811 16.4546 -14.2885 2.54891 -18.0247 -0.00536218 0.0462048 0.000530889 0.662642 
3.27382 101.092 -7.40828 -4.84473 -1.36165 -88.878 -1.57598 -17.146 -2.3358 1.37249 42.0641 21.5194 -9.20122 -11.788 -0.280659 -1.32628e-009 8.7523e-006 -1.46892e-008 7.31803 13.7266 0.0389014 -5.00766 -2.02129 1.87239 34.8789 1.70798 0.13565 38.7076 -0.00054574 22.6682 5.02922 28.0164 16.0037 -7.44421 9.58012 0.0912519 -44.4776 3.55383 -3.44428 -25.149 -22.013 9.54963 -9.15119 43.7 -6.42923 5.82328 9.61819 -0.917488 1.24516 -15.3728 -8.61977 -0.17109 0.344023 -7.47235 3.7512 16.9619 -14.5078 2.45799 -17.3001 -0.0250105 0.0462048 0.000530889 0.662642 
5.15333 101.035 -7.32608 -4.49141 -1.14367 -88.7231 -1.77754 -15.4751 -3.08337 1.47091 46.6468 21.074 -9.25439 -13.1816 -0.389366 -1.32628e-009 8.7523e-006 -1.46892e-008 7.75512 13.3481 -0.236261 -4.57324 -1.97294 1.65936 34.9575 1.71422 0.14374 40.3152 -4.97332 20.4711 6.79662 34.7445 12.0652 -7.33268 9.59576 -0.0971435 -44.4939 3.56169 -3.45717 -25.9364 -21.4267 8.43589 -8.02261 41.6002 -8.28291 5.82328 9.61819 -0.917488 1.18748 -15.3471 -7.90096 -0.0713054 -1.493 -7.30515 3.84118 17.3834 -14.8532 2.43355 -16.5006 -0.0389923 0.0462048 0.000530889 0.662642 
7.07852 101.018 -7.2354 -4.14148 -1.03792 -88.669 -2.0319 -13.1769 -3.63864 1.56285 49.7076 21.0461 -9.28031 -14.21 -0.470266 -1.32628e-009 8.7523e-006 -1.46892e-008 7.66031 13.1201 -0.530239 -3.95657 -2.02557 1.33261 35.2617 1.7246 0.141438 41.614 -10.7356 18.2625 9.07215 41.3392 7.5517 -7.56958 9.59728 -0.315251 -44.3406 3.54481 -3.44709 -26.9735 -19.9515 6.88685 -7.14591 39.9645 -9.89328 5.82328 9.61819 -0.917488 1.32894 -15.3192 -7.10746 -0.0698176 -3.24947 -7.10528 3.91261 17.5644 -15.1624 2.11953 -15.4792 -0.0762724 0.0462048 0.000530889 0.662642 
9.04283 101.003 -7.10902 -3.81113 -1.08972 -88.7107 -2.42288 -10.4017 -4.06464 1.63815 51.4092 21.4303 -9.54147 -14.9908 -0.547656 -1.32628e-009 8.7523e-006 -1.46892e-008 7.10381 13.0032 -0.816462 -3.22826 -2.11908 0.930949 35.6626 1.73802 0.137781 42.0264 -15.3693 15.6911 10.9921 45.7163 3.69257 -7.79565 9.59992 -0.530483 -44.1335 3.52112 -3.43176 -28.0237 -17.7121 4.9563 -6.31879 38.8353 -11.4125 5.82328 9.61819 -0.917488 1.53844 -15.4432 -6.36247 -0.226318 -4.91674 -6.93349 3.95208 17.5473 -15.3991 1.68235 -14.4414 -0.115743 0.0462048 0.000530889 0.662642 
11.0309 100.932 -6.91268 -3.54444 -1.13499 -88.7743 -2.77608 -7.29838 -4.36953 1.67482 52.0357 21.6878 -9.72887 -15.8947 -0.633456 -1.32628e-009 8.7523e-006 -1.46892e-008 6.43946 12.9078 -1.15399 -2.38111 -2.11517 0.441714 35.8834 1.74788 0.141614 41.7359 -18.3842 12.6858 11.9893 47.717 1.33248 -7.68566 9.61737 -0.75338 -44.0173 3.5106 -3.427 -28.897 -14.9525 2.88713 -5.25364 37.5833 -13.1932 5.82328 9.61819 -0.917488 1.66575 -15.766 -5.66204 -0.370126 -6.5377 -6.70614 3.90932 17.5068 -15.6381 1.35215 -13.495 -0.140697 0.0462048 0.000530889 0.662642 
13.049 100.816 -6.65805 -3.34119 -1.00097 -88.8689 -2.80667 -4.04665 -4.34725 1.65421 51.6123 21.5637 -9.8031 -16.649 -0.701391 -1.32628e-009 8.7523e-006 -1.46892e-008 5.97092 12.7952 -1.5417 -1.56254 -2.0124 -0.0863403 35.9233 1.75262 0.149268 40.9444 -19.8409 9.36039 12.1433 47.9258 0.63074 -7.30265 9.64957 -1.06363 -43.9094 3.50435 -3.42451 -29.5674 -11.8225 0.954823 -3.83648 35.3961 -15.4625 5.82328 9.61819 -0.917488 1.74652 -16.149 -5.00473 -0.333851 -8.17026 -6.34619 3.84406 17.5339 -15.9899 1.00001 -12.3843 -0.1611 0.0462048 0.000530889 0.662642 
15.12 100.675 -6.37751 -3.11818 -0.676859 -89.0048 -2.44384 -0.92156 -3.83254 1.58687 50.2055 21.2169 -10.1651 -16.8841 -0.75069 -1.32628e-009 8.7523e-006 -1.46892e-008 5.69398 12.6345 -1.90259 -0.907168 -1.94582 -0.58487 35.92 1.75515 0.156005 39.773 -19.6962 5.82655 11.778 46.9762 1.38825 -6.83358 9.68492 -1.41749 -43.6892 3.48603 -3.4238 -30.0417 -8.50136 -0.743303 -2.20304 32.1388 -18.1587 5.82328 9.61819 -0.917488 1.85294 -16.3954 -4.44706 -0.130902 -9.83313 -5.88018 3.87656 17.4927 -16.5083 0.558739 -11.0154 -0.177446 0.0462048 0.000530889 0.662642 
17.2866 100.469 -6.07931 -2.83653 -0.280843 -89.0958 -1.88357 1.86577 -3.00539 1.49379 48.1406 20.616 -10.7701 -16.919 -0.804189 -1.32628e-009 8.7523e-006 -1.46892e-008 5.38837 12.4333 -2.20993 -0.259743 -1.95643 -1.07101 35.8649 1.75699 0.166587 38.6115 -17.837 2.33363 11.0518 45.2436 3.22172 -6.38718 9.71035 -1.63408 -43.4603 3.46682 -3.42554 -30.218 -5.77278 -2.26409 -0.559913 28.7731 -21.1567 5.82328 9.61819 -0.917488 1.96491 -16.4752 -3.98792 0.124491 -11.5332 -5.36854 3.98725 17.2826 -17.1407 0.231321 -9.64728 -0.181189 0.0462048 0.000530889 0.662642 
19.5932 100.158 -5.75896 -2.6029 0.0897082 -89.0724 -1.37582 4.35876 -2.273 1.37354 45.4609 19.4652 -11.1336 -16.9894 -0.841065 -1.32628e-009 8.7523e-006 -1.46892e-008 4.89352 12.2821 -2.50042 0.541829 -1.9143 -1.58915 35.7393 1.75846 0.181345 37.968 -14.795 -0.735252 10.0759 43.0044 5.50677 -6.13871 9.71912 -1.65149 -43.2868 3.4569 -3.43161 -30.1649 -5.61802 -3.66239 0.975081 27.4827 -24.4991 5.82328 9.61819 -0.917488 2.10046 -16.5247 -3.55173 0.352861 -13.2641 -4.83585 4.03909 17.0416 -17.8124 -0.0176799 -8.29089 -0.176052 0.0462048 0.000530889 0.662642 
22.0387 99.7793 -5.42116 -2.54439 0.384059 -88.974 -1.0632 6.78169 -1.89354 1.22448 41.5771 17.8973 -11.2835 -16.7122 -0.826743 -1.32628e-009 8.7523e-006 -1.46892e-008 4.28019 12.2687 -2.77082 1.24652 -1.78051 -2.09455 35.6652 1.75974 0.189753 37.9682 -11.6072 -3.26267 9.03635 40.4426 7.72633 -6.20659 9.71427 -1.5924 -42.9612 3.43217 -3.43124 -30.2993 -8.73234 -4.94554 2.54596 29.1721 -28.4303 5.82328 9.61819 -0.917488 2.33427 -16.577 -3.14593 0.502064 -14.9187 -4.3274 4.0264 16.8314 -18.5274 -0.585437 -6.62493 -0.158801 0.0462048 0.000530889 0.662642 
24.6198 99.3725 -5.05332 -2.63581 0.5938 -88.8214 -0.976543 9.19123 -1.87811 1.07882 36.1786 16.6983 -11.6452 -16.4284 -0.829155 -1.32628e-009 8.7523e-006 -1.46892e-008 3.78138 12.4301 -2.9928 1.48451 -1.75492 -2.50524 35.7265 1.76103 0.186814 38.4681 -8.68999 -5.43622 8.04974 37.3737 9.81358 -6.35147 9.70767 -1.55606 -42.4091 3.37917 -3.40776 -30.6993 -11.5123 -6.1305 4.29421 30.5993 -32.9016 5.82328 9.61819 -0.917488 2.60546 -16.492 -2.89601 0.502127 -16.4123 -3.93799 4.08256 16.455 -19.3 -1.54988 -4.6407 -0.110239 0.0462048 0.000530889 0.662642 
27.4214 98.8931 -4.6164 -2.77362 0.712876 -88.4997 -1.16105 11.2119 -2.20916 0.997057 30.3112 16.5096 -11.9032 -17.8175 -0.990766 -1.32628e-009 8.7523e-006 -1.46892e-008 3.43642 12.8422 -3.18871 1.38838 -1.97012 -2.83682 35.8669 1.76252 0.177932 39.2831 -6.28725 -7.25231 7.22962 34.1761 11.6489 -6.26052 9.70554 -1.51776 -41.9862 3.33714 -3.38623 -31.0208 -13.516 -7.37224 6.07555 31.512 -37.5808 5.82328 9.61819 -0.917488 2.75476 -16.2672 -2.88187 0.24779 -17.8921 -3.73559 4.18791 15.862 -20.0762 -2.36861 -2.57435 -0.0329941 0.0462048 0.000530889 0.662642 
30.535 98.3127 -4.11062 -2.96454 0.545263 -87.8834 -1.8098 12.2383 -2.85781 0.997356 25.7819 17.2188 -11.0339 -21.6494 -1.26806 -1.32628e-009 8.7523e-006 -1.46892e-008 2.76133 13.5948 -3.3608 1.50193 -2.24453 -3.18349 36.0663 1.76409 0.163898 40.041 -5.3261 -8.3086 6.69058 32.3397 12.7522 -6.02084 9.7053 -1.44148 -41.9759 3.34048 -3.39463 -31.0745 -14.8135 -8.89606 7.61327 31.9305 -41.863 5.82328 9.61819 -0.917488 2.79432 -16.1524 -3.06702 -0.47115 -19.4603 -3.7816 4.13275 15.2189 -20.858 -2.41858 -0.369901 0.0289116 0.0462048 0.000530889 0.662642 
33.9111 97.7393 -3.61242 -3.28404 -0.195308 -87.001 -3.10061 12.014 -3.47397 1.09312 23.4331 18.0937 -8.63716 -26.0628 -1.29684 -1.32628e-009 8.7523e-006 -1.46892e-008 1.13633 14.6365 -3.42383 2.13149 -2.35778 -3.5676 36.3857 1.76588 0.139054 40.4026 -6.58827 -8.33711 6.41472 32.9954 12.8122 -5.89054 9.70611 -1.32852 -42.139 3.36321 -3.41643 -31.1529 -15.5232 -10.7199 8.72053 32.0431 -45.104 5.82328 9.61819 -0.917488 2.88477 -16.266 -3.41716 -1.88756 -20.7733 -4.21298 3.83164 14.3459 -21.751 -1.37198 1.70266 -0.000478536 0.0462048 0.000530889 0.662642 
37.335 97.3056 -3.19394 -3.69698 -1.48274 -86.0931 -4.86185 10.8863 -3.56777 1.24154 22.678 18.3907 -5.69235 -28.8139 -0.940228 -1.32628e-009 8.7523e-006 -1.46892e-008 -1.33279 15.7523 -3.24823 3.04011 -2.36866 -3.8529 36.7954 1.76798 0.104849 40.4527 -9.85657 -7.68153 6.33847 35.7075 12.0111 -5.82924 9.70717 -1.17804 -42.1654 3.36781 -3.42182 -31.4563 -15.5729 -12.464 9.38699 32.0916 -46.9537 5.82328 9.61819 -0.917488 3.02529 -16.3391 -3.97036 -3.88358 -21.4144 -5.05805 3.40323 12.8568 -22.5054 1.02389 2.24071 -0.191848 0.0462048 0.000530889 0.662642 
40.541 97.1234 -2.85636 -4.10891 -2.89926 -85.5362 -6.63037 9.38655 -3.23662 1.21674 22.6426 18.218 -3.56648 -29.5439 -0.54688 -1.32628e-009 8.7523e-006 -1.46892e-008 -3.74838 16.6294 -2.78149 3.60396 -2.44412 -3.8005 37.1705 1.77003 0.0709715 40.4477 -14.3133 -6.87958 6.50151 39.1777 10.6202 -5.70904 9.70764 -1.01861 -42.2214 3.3722 -3.42223 -31.5783 -14.8722 -13.5648 9.56879 32.1432 -47.3139 5.82328 9.61819 -0.917488 3.01204 -16.068 -4.75991 -5.83567 -21.2298 -5.89817 2.90589 10.4542 -22.3137 4.68166 0.448411 -0.443424 0.0462048 0.000530889 0.662642 
43.3507 97.2923 -2.55411 -4.5328 -3.94078 -85.6756 -7.9635 7.9246 -2.42831 1.12135 22.8291 17.7848 -2.49246 -28.9307 -0.31928 -1.32628e-009 8.7523e-006 -1.46892e-008 -5.04981 16.9932 -2.1316 3.18909 -2.49665 -3.25794 37.4401 1.77169 0.0469251 40.5569 -18.9649 -5.99277 7.01217 42.3668 8.71145 -5.66943 9.7082 -0.966534 -42.603 3.41169 -3.44435 -31.0799 -13.5956 -13.6821 9.1112 32.1063 -46.0962 5.82328 9.61819 -0.917488 2.72806 -15.5114 -5.70361 -6.98328 -20.5058 -6.15963 2.33058 7.83386 -20.7161 8.39808 -2.19817 -0.540197 0.0462048 0.000530889 0.662642 
45.7823 97.8283 -2.24821 -5.02323 -4.14108 -86.4746 -8.46712 6.8723 -1.48909 1.05163 22.5825 17.6054 -1.7692 -27.3893 -0.163049 -1.32628e-009 8.7523e-006 -1.46892e-008 -4.53124 16.8333 -1.54482 1.68221 -2.28484 -2.34871 37.5564 1.77264 0.0418723 40.97 -22.4993 -4.67285 7.77353 44.7119 6.58265 -5.80734 9.70801 -1.08266 -43.1623 3.46822 -3.47324 -30.2353 -12.1099 -12.7913 8.00425 31.9033 -43.2893 5.82328 9.61819 -0.917488 2.25008 -14.9204 -6.57832 -6.88293 -20.0396 -5.65493 1.76845 7.35433 -18.5942 10.2429 -3.96647 -0.483015 0.0462048 0.000530889 0.662642 
